HIERARCHY
ROOT Hips
{
	OFFSET 0.000000 0.000000 0.000000 
	CHANNELS 6 Xposition Yposition Zposition Yrotation Zrotation Xrotation 
	JOINT Lumbar
	{
		OFFSET 0.000000 0.000000 0.000000 
		CHANNELS 3 Zrotation Xrotation Yrotation
		JOINT Neck
		{
			OFFSET 0.000000 0.445665 0.000000 
			CHANNELS 3 Zrotation Xrotation Yrotation
			End Site
			{
				OFFSET 0.000000 0.227535 0.000000 
			}
		}
		JOINT RightShoulder
		{
			OFFSET 0.019635 0.377685 0.194865 
			CHANNELS 3 Zrotation Xrotation Yrotation
			JOINT RightElbow
			{
				OFFSET 0.000000 -0.243375 0.000000 
				CHANNELS 2 Zrotation Yrotation
				JOINT RightWrist
				{
					OFFSET 0.000000 -0.264825 0.000000 
					CHANNELS 2 Zrotation Xrotation
					End Site
					{
						OFFSET 0.006600 -0.176220 0.000990 
					}
				}
			}
		}
		JOINT LeftShoulder
		{
			OFFSET 0.019635 0.377685 -0.194865 
			CHANNELS 3 Zrotation Xrotation Yrotation
			JOINT LeftElbow
			{
				OFFSET 0.000000 -0.243375 0.000000 
				CHANNELS 2 Zrotation Yrotation
				JOINT LeftWrist
				{
					OFFSET 0.000000 -0.264825 0.000000 
					CHANNELS 2 Zrotation Xrotation
					End Site
					{
						OFFSET 0.006600 -0.176220 -0.000990 
					}
				}
			}
		}
	}
	JOINT RightHip
	{
		OFFSET 0.052140 -0.069960 0.075570 
		CHANNELS 3 Zrotation Xrotation Yrotation
		JOINT RightKnee
		{
			OFFSET 0.000000 -0.402270 0.000000 
			CHANNELS 1 Zrotation
			JOINT RightAnkle
			{
				OFFSET 0.000000 -0.404085 0.000000 
				CHANNELS 3 Zrotation Xrotation Yrotation
				End Site
				{
					OFFSET 0.204105 -0.089430 0.008415 
				}
			}
		}
	}
	JOINT LeftHip
	{
		OFFSET 0.052140 -0.069960 -0.075570 
		CHANNELS 3 Zrotation Xrotation Yrotation
		JOINT LeftKnee
		{
			OFFSET 0.000000 -0.402270 0.000000 
			CHANNELS 1 Zrotation
			JOINT LeftAnkle
			{
				OFFSET 0.000000 -0.404085 0.000000 
				CHANNELS 3 Zrotation Xrotation Yrotation
				End Site
				{
					OFFSET 0.204105 -0.089430 -0.008415 
				}
			}
		}
	}
}
MOTION
Frames: 20
Frame Time: 0.02
0.07935 0.91894 -0.23274 172.71946 0 -7.18267 -2.8614 1.6615 42.32693 -73.78761 43.10729 9.21886 63.61278 -37.43336 -1.79822 15.28149 84.84134 0.09836 -3.69505 61.02827 62.26351 62.00897 34.60725 -116.97283 -51.70207 6.98784 4.74108 13.92287 -40.6227 -23.74565 -5.06271 -0 17.18873 11.43261 -3.25083 22.84473 -19.71497 0.91329 5.07038 14.46674
0.08003 0.91921 -0.23229 172.61203 0 -7.28438 -2.9029 1.76624 41.9983 -73.80363 43.16963 9.80758 63.12596 -37.84597 -2.07432 15.5668 84.51068 -0.79423 -4.18806 59.74449 61.35779 62.95707 34.66871 -117.35917 -52.10199 7.02199 4.83916 13.92287 -40.62268 -23.87403 -5.55824 -4e-05 17.18869 11.339 -3.22326 22.91627 -19.3977 0.75977 5.03809 14.54244
0.08061 0.91958 -0.23212 172.48534 0 -7.39247 -2.94537 1.83987 41.43389 -73.79437 43.1337 10.675 62.79421 -38.61345 -2.14054 15.78344 84.25163 -1.70365 -4.54092 58.42447 60.13236 63.8836 34.70938 -117.76323 -52.32106 7.06733 4.9293 13.92287 -40.62265 -24.00273 -6.15586 -9e-05 17.18865 11.18268 -3.20852 22.94992 -18.95107 0.57008 4.99383 14.67711
0.08124 0.9199 -0.2318 172.36857 0 -7.4969 -2.98843 1.93217 40.98882 -73.79696 43.14369 11.40127 62.40724 -39.21698 -2.27244 16.03192 83.96095 -2.5696 -4.94551 57.15396 59.06893 64.79992 34.75396 -118.14075 -52.61336 7.10538 5.02276 13.92287 -40.62263 -24.12976 -6.69316 -0.00013 17.18861 11.05894 -3.18765 23.00219 -18.57187 0.4028 4.95609 14.78084
0.08183 0.92025 -0.23159 172.24694 0 -7.60534 -3.02868 2.00553 40.47762 -73.79757 43.14609 12.20727 61.95772 -39.85526 -2.51389 16.28646 83.66144 -3.6017 -5.41287 55.71904 57.91404 65.81344 34.82726 -118.59907 -52.94881 7.15282 5.11901 13.92286 -40.6226 -24.26697 -7.29352 -0.00018 17.18857 10.9186 -3.16673 23.04873 -18.15781 0.20942 4.91335 14.90275
0.08248 0.92056 -0.23122 172.13157 0 -7.70678 -3.07429 2.11138 40.05278 -73.79643 43.14167 12.90664 61.67565 -40.4973 -2.48392 16.50913 83.39935 -4.28922 -5.71341 54.62734 56.88139 66.61333 34.834 -118.89368 -53.14944 7.18352 5.20705 13.92286 -40.62258 -24.38176 -7.78568 -0.00022 17.18854 10.79753 -3.14953 23.09772 -17.7849 0.06243 4.87843 15.00018
0.08333 0.92068 -0.23039 172.02909 0 -7.78559 -3.13595 2.30827 39.9367 -73.79713 43.14439 13.23875 61.80567 -41.05238 -1.74902 16.65564 83.22251 -3.9813 -5.56391 54.49461 56.2691 66.84292 34.65893 -118.71368 -53.0211 7.16278 5.27306 13.92286 -40.62259 -24.43241 -7.94657 -0.0002 17.18856 10.74713 -3.13868 23.16789 -17.5585 0.04899 4.86708 15.01987
0.08424 0.92076 -0.22939 171.93502 0 -7.85732 -3.20239 2.53997 39.91547 -73.79693 43.1436 13.45224 62.10095 -41.59764 -0.7515 16.7722 83.08216 -3.33109 -5.25385 54.71143 55.79296 66.85412 34.41747 -118.37093 -52.76265 7.12521 5.33099 13.92287 -40.62262 -24.46022 -7.99539 -0.00016 17.18859 10.7178 -3.13146 23.24101 -17.37746 0.08418 4.86428 15.01203
0.08511 0.92086 -0.22845 171.84308 0 -7.93331 -3.26559 2.75977 39.84491 -73.7969 43.14348 13.72014 62.32794 -42.15056 0.11897 16.90422 82.92549 -2.86062 -5.0306 54.77059 55.25464 66.95404 34.20747 -118.11419 -52.5637 7.09695 5.39334 13.92287 -40.62263 -24.49944 -8.10019 -0.00013 17.18862 10.67745 -3.12324 23.30932 -17.17471 0.09945 4.8582 15.014
0.08603 0.92095 -0.22759 171.72586 0 -8.00516 -3.33377 2.96206 39.7925 -73.79699 43.14382 13.99534 62.53071 -42.70211 1.02897 17.02562 82.76796 -2.2877 -4.74376 54.82404 54.70644 67.0972 33.99093 -117.80794 -52.35727 7.06217 5.45262 13.92287 -40.62266 -24.53479 -8.18877 -0.0001 17.18865 10.64118 -3.11265 23.39056 -16.97237 0.10434 4.84902 15.02954
0.08685 0.92104 -0.22653 171.66295 0 -8.08382 -3.39217 3.20933 39.72748 -73.79694 43.14363 14.22428 62.82229 -43.25037 1.91693 17.16361 82.62267 -1.84821 -4.55367 54.97161 54.21492 67.09952 33.77311 -117.56511 -52.13751 7.03672 5.51603 13.92287 -40.62267 -24.57225 -8.28135 -7e-05 17.18868 10.60201 -3.10777 23.44656 -16.78131 0.14273 4.84863 15.00939
0.08739 0.92118 -0.225 171.75291 0 -8.18334 -3.42669 3.57377 39.61044 -73.79695 43.14369 14.34513 63.30813 -43.78098 2.67235 17.34853 82.48098 -1.84599 -4.66381 55.30672 53.85332 66.75877 33.56238 -117.54366 -51.91637 7.04186 5.59661 13.92287 -40.62268 -24.62521 -8.42761 -6e-05 17.18869 10.55199 -3.11693 23.42817 -16.61393 0.26337 4.86931 14.89806
0.08782 0.92133 -0.22328 171.89626 0 -8.28986 -3.45035 3.9821 39.47773 -73.79695 43.14367 14.4237 63.87883 -44.30852 3.39698 17.55266 82.35527 -1.9924 -4.87828 55.72238 53.54463 66.28544 33.35365 -117.5903 -51.68649 7.05678 5.68094 13.92287 -40.62269 -24.68029 -8.57867 -5e-05 17.1887 10.4983 -3.13175 23.38535 -16.4565 0.41595 4.8988 14.75139
0.08829 0.92147 -0.22164 172.01219 0 -8.39294 -3.47623 4.36956 39.34925 -73.79694 43.14364 14.52642 64.41674 -44.84315 4.13923 17.75235 82.23419 -2.08052 -5.05019 56.09264 53.20878 65.87777 33.14793 -117.60154 -51.45924 7.06671 5.76114 13.92287 -40.62269 -24.73169 -8.71666 -3e-05 17.18871 10.44495 -3.14452 23.35634 -16.29253 0.55304 4.92508 14.62015
0.08879 0.92162 -0.22002 172.14235 0 -8.4969 -3.51395 4.76231 39.23537 -73.79694 43.14363 14.60475 64.93604 -45.35478 4.87471 17.93278 82.0589 -2.11802 -5.19747 56.51177 52.89001 65.43919 32.92386 -117.62618 -51.23326 7.0784 5.85137 13.92287 -40.6227 -24.79378 -8.89562 -2e-05 17.18872 10.39748 -3.15541 23.31541 -16.13776 0.69591 4.94834 14.49051
0.0892 0.92176 -0.21831 172.25468 0 -8.60072 -3.52411 5.15378 39.08708 -73.79693 43.14361 14.72487 65.51222 -45.91223 5.61446 18.15836 82.00652 -2.30023 -5.42102 56.8442 52.54728 65.03691 32.73869 -117.64086 -51.00397 7.08893 5.92162 13.92287 -40.6227 -24.83437 -8.99329 -1e-05 17.18872 10.33715 -3.17125 23.29417 -15.96666 0.83369 4.97981 14.34966
0.08942 0.9219 -0.2164 172.31142 0 -8.70293 -3.46281 5.53272 38.83912 -73.79694 43.14362 14.97506 66.22222 -46.60847 6.36432 18.50338 82.22983 -2.85115 -5.84756 56.91129 52.11862 64.76369 32.66661 -117.61506 -50.77126 7.0942 5.93665 13.92287 -40.6227 -24.81578 -8.85342 -1e-05 17.18872 10.2378 -3.20162 23.32722 -15.73916 0.94954 5.03241 14.18527
0.08955 0.92203 -0.21441 172.34722 0 -8.80469 -3.37367 5.90815 38.55781 -73.79693 43.14359 15.26858 66.9859 -47.3486 7.12 18.89339 82.58557 -3.54293 -6.34499 56.88752 51.66473 64.53349 32.63289 -117.57703 -50.53567 7.09798 5.93137 13.92287 -40.62269 -24.7756 -8.63444 -1e-05 17.18871 10.1264 -3.23632 23.38188 -15.49645 1.05886 5.09276 14.01128
0.08971 0.92217 -0.21245 172.38799 0 -8.90641 -3.29606 6.28417 38.29739 -73.79694 43.14363 15.53989 67.72611 -48.06134 7.87756 19.26333 82.92182 -4.16878 -6.79877 56.90795 51.22612 64.28687 32.5778 -117.54296 -50.29953 7.1023 5.93477 13.92287 -40.62269 -24.7448 -8.45994 -0 17.1887 10.02328 -3.2676 23.43085 -15.26612 1.17111 5.14916 13.84245
0.0899 0.92231 -0.21049 172.44924 0 -9.00945 -3.22312 6.66691 38.01388 -73.79694 43.14362 15.81998 68.46654 -48.80616 8.61472 19.63246 83.09371 -4.80905 -7.30339 56.92008 50.77303 64.02163 32.53896 -117.51784 -50.07022 7.10752 5.94041 13.92287 -40.62268 -24.71532 -8.24918 -0 17.18869 9.90809 -3.30529 23.46225 -15.0125 1.28505 5.20788 13.66851
